<?xml version="1.0" encoding="utf-8"?>
<!-- Generator: Adobe Illustrator 19.1.0, SVG Export Plug-In . SVG Version: 6.00 Build 0)  -->
<svg version="1.1" id="Слой_1" xmlns="http://www.w3.org/2000/svg" xmlns:xlink="http://www.w3.org/1999/xlink" x="0px" y="0px"
	 viewBox="0 0 160 160" style="enable-background:new 0 0 160 160;" xml:space="preserve">
<style type="text/css">
	.st0{opacity:0.5;}
	.st1{opacity:0.2;fill:#B9ADD5;}
	.st2{opacity:0.1;fill:#B9ADD5;}
	.st3{opacity:0.1;fill:none;stroke:#B9ADD5;stroke-width:5.0121;stroke-miterlimit:10;}
	.st4{opacity:0.3;fill:url(#XMLID_2_);}
	.st5{opacity:0.6;fill:url(#XMLID_3_);}
	.st6{opacity:0.3;fill:#69ACCE;}
	.st7{opacity:0.4;}
	.st8{fill:none;stroke:#69ACCE;stroke-width:1.7746;stroke-linecap:round;stroke-linejoin:round;stroke-miterlimit:10;}
	.st9{opacity:0.6;}
	.st10{fill:none;stroke:#69ACCE;stroke-width:3.0073;stroke-linecap:round;stroke-linejoin:round;stroke-miterlimit:10;}
	.st11{fill:none;stroke:#69ACCE;stroke-width:2.0048;stroke-linecap:round;stroke-linejoin:round;stroke-miterlimit:10;}
	.st12{fill:none;stroke:#69ACCE;stroke-width:4.0097;stroke-linecap:round;stroke-linejoin:round;stroke-miterlimit:10;}
	.st13{fill:#69ACCE;}
	.st14{opacity:0.2;}
	.st15{opacity:0.3;}
	.st16{opacity:0.25;fill:url(#XMLID_4_);}
	.st17{opacity:0.25;fill:url(#XMLID_5_);}
	.st18{opacity:0.25;fill:url(#XMLID_6_);}
	.st19{fill:none;stroke:#0D0F0F;stroke-width:0.8197;stroke-miterlimit:10;}
	.st20{opacity:0.25;fill:url(#XMLID_7_);}
	.st21{opacity:0.25;fill:url(#XMLID_8_);}
	.st22{opacity:0.25;fill:url(#XMLID_9_);}
	.st23{fill:none;stroke:#131415;stroke-width:2;stroke-linecap:round;stroke-miterlimit:10;}
	.st24{fill:#69ACCE;stroke:#0D0F0F;stroke-linecap:round;stroke-linejoin:round;stroke-miterlimit:10;}
	
		.st25{opacity:0.5;fill:none;stroke:#FFFFFF;stroke-width:3.8048;stroke-linecap:round;stroke-linejoin:round;stroke-miterlimit:10;}
	.st26{fill:#538A9C;stroke:#0D0F0F;stroke-linecap:round;stroke-linejoin:round;stroke-miterlimit:10;}
	.st27{opacity:0.2;fill:#0D0F0F;}
	.st28{fill:#69ACCE;stroke:#0D0F0F;stroke-width:0.5;stroke-miterlimit:10;}
</style>
<g id="XMLID_221_">
	<g id="XMLID_552_">
		<g id="XMLID_787_" class="st0">
			<path id="XMLID_797_" class="st1" d="M80.4,133.9c-29.7,0-53.9-24.2-53.9-53.9s24.2-53.9,53.9-53.9s53.9,24.2,53.9,53.9
				S110.1,133.9,80.4,133.9z M80.4,36.3c-24.1,0-43.7,19.6-43.7,43.7s19.6,43.7,43.7,43.7s43.7-19.6,43.7-43.7S104.5,36.3,80.4,36.3
				z"/>
			<path id="XMLID_789_" class="st2" d="M80.4,149.9c-38.5,0-69.9-31.3-69.9-69.9s31.3-69.9,69.9-69.9s69.9,31.3,69.9,69.9
				S118.9,149.9,80.4,149.9z M80.4,16.9c-34.8,0-63.1,28.3-63.1,63.1s28.3,63.1,63.1,63.1s63.1-28.3,63.1-63.1S115.2,16.9,80.4,16.9
				z"/>
			<circle id="XMLID_788_" class="st3" cx="80.4" cy="80" r="80"/>
		</g>
		<g id="XMLID_784_">
			
				<radialGradient id="XMLID_2_" cx="2951.7126" cy="-1470.274" r="51.3899" gradientTransform="matrix(-1.2648 0 0 1.2648 3812.4219 1942.2633)" gradientUnits="userSpaceOnUse">
				<stop  offset="0.2351" style="stop-color:#8D79B4"/>
				<stop  offset="0.3388" style="stop-color:#937FB9;stop-opacity:0.8644"/>
				<stop  offset="0.5304" style="stop-color:#A795C6;stop-opacity:0.6139"/>
				<stop  offset="0.7866" style="stop-color:#CFC4E1;stop-opacity:0.279"/>
				<stop  offset="1" style="stop-color:#FFFFFF;stop-opacity:0"/>
			</radialGradient>
			<circle id="XMLID_786_" class="st4" cx="79.2" cy="82.7" r="65"/>
			
				<radialGradient id="XMLID_3_" cx="-1210.9696" cy="-1470.274" r="51.3899" gradientTransform="matrix(1.2648 0 0 1.2648 1615.0294 1942.2633)" gradientUnits="userSpaceOnUse">
				<stop  offset="0.2351" style="stop-color:#69ACCE"/>
				<stop  offset="0.3218" style="stop-color:#70AFD1;stop-opacity:0.8867"/>
				<stop  offset="0.482" style="stop-color:#83B9D8;stop-opacity:0.6772"/>
				<stop  offset="0.698" style="stop-color:#ABCEE5;stop-opacity:0.3948"/>
				<stop  offset="0.9592" style="stop-color:#F0F6FA;stop-opacity:5.337256e-002"/>
				<stop  offset="1" style="stop-color:#FFFFFF;stop-opacity:0"/>
			</radialGradient>
			<circle id="XMLID_785_" class="st5" cx="83.4" cy="82.7" r="65"/>
		</g>
		<g id="XMLID_733_">
			<circle id="XMLID_783_" class="st6" cx="68.8" cy="42.5" r="2.8"/>
			<g id="XMLID_780_" class="st7">
				<line id="XMLID_782_" class="st8" x1="110.4" y1="32" x2="110.4" y2="26.2"/>
				<line id="XMLID_781_" class="st8" x1="113.2" y1="29.2" x2="107.5" y2="29.2"/>
			</g>
			<g id="XMLID_776_" class="st9">
				<line id="XMLID_779_" class="st10" x1="102.8" y1="155.5" x2="102.8" y2="144.6"/>
				<line id="XMLID_778_" class="st10" x1="108.2" y1="150.1" x2="97.4" y2="150.1"/>
			</g>
			<g id="XMLID_766_" class="st7">
				<line id="XMLID_775_" class="st11" x1="71.6" y1="125.5" x2="71.6" y2="120.4"/>
				<line id="XMLID_774_" class="st11" x1="74.1" y1="123" x2="69.1" y2="123"/>
			</g>
			<g id="XMLID_749_" class="st7">
				<line id="XMLID_762_" class="st12" x1="43.5" y1="24.3" x2="43.5" y2="13.7"/>
				<line id="XMLID_750_" class="st12" x1="48.8" y1="19.1" x2="38.3" y2="19.1"/>
			</g>
			<g id="XMLID_747_" class="st0">
				<path id="XMLID_748_" class="st13" d="M76.4,152c0-2.6-1.2-5.3-4.2-5.8c5.2,0.4,5.8-4.2,5.8-4.2l0,0c0,0-0.8,4.6,4.2,5.8
					C79.2,147.3,77,149.5,76.4,152L76.4,152z"/>
			</g>
			<g id="XMLID_744_" class="st14">
				<path id="XMLID_745_" class="st13" d="M90,118.1c-0.7-1.3-2.1-2.3-3.7-1.7c2.7-1.2,1.7-3.7,1.7-3.7l0,0c0,0,0.9,2.5,3.7,1.7
					C90.1,115,89.6,116.6,90,118.1L90,118.1z"/>
			</g>
			<g id="XMLID_736_" class="st9">
				<path id="XMLID_743_" class="st13" d="M89.6,15.3c-1.5-2.7-4.3-4.8-7.7-3.6C87.5,9.2,85.5,4,85.5,4l0,0c0,0,1.8,5.3,7.7,3.6
					C89.8,8.8,88.8,12.3,89.6,15.3L89.6,15.3z"/>
			</g>
			<g id="XMLID_734_" class="st14">
				<path id="XMLID_735_" class="st13" d="M91.5,50.9c-0.8-1.4-2.2-2.4-3.8-1.8c2.8-1.3,1.8-3.8,1.8-3.8l0,0c0,0,0.9,2.6,3.8,1.8
					C91.7,47.6,91.1,49.4,91.5,50.9L91.5,50.9z"/>
			</g>
		</g>
		<g id="XMLID_555_" class="st15">
			<circle id="XMLID_732_" class="st6" cx="116.7" cy="91.7" r="2.8"/>
			<circle id="XMLID_728_" class="st6" cx="132" cy="70" r="3.8"/>
			<circle id="XMLID_724_" class="st6" cx="27.3" cy="68.8" r="3.7"/>
			<g id="XMLID_610_" class="st7">
				<line id="XMLID_723_" class="st8" x1="127.2" y1="50.2" x2="132.9" y2="50.2"/>
				<line id="XMLID_722_" class="st8" x1="130" y1="47.3" x2="130" y2="53"/>
			</g>
			<g id="XMLID_596_" class="st9">
				<line id="XMLID_598_" class="st12" x1="3.7" y1="57.7" x2="14.6" y2="57.7"/>
				<line id="XMLID_597_" class="st12" x1="9.1" y1="52.3" x2="9.1" y2="63.1"/>
			</g>
			<g id="XMLID_586_" class="st7">
				<line id="XMLID_593_" class="st11" x1="33.7" y1="88.9" x2="38.8" y2="88.9"/>
				<line id="XMLID_592_" class="st11" x1="36.2" y1="86.4" x2="36.2" y2="91.4"/>
			</g>
			<g id="XMLID_581_" class="st7">
				<line id="XMLID_583_" class="st12" x1="134.9" y1="117" x2="145.5" y2="117"/>
				<line id="XMLID_582_" class="st12" x1="140.1" y1="111.8" x2="140.1" y2="122.2"/>
			</g>
			<g id="XMLID_578_" class="st15">
				<path id="XMLID_579_" class="st13" d="M22,105.7c2.6,1.4,4.5,4.1,3.4,7.3c2.4-5.3,7.3-3.4,7.3-3.4l0,0c0,0-5-1.7-3.4-7.3
					C28.1,105.5,24.8,106.5,22,105.7L22,105.7z"/>
			</g>
			<g id="XMLID_575_" class="st0">
				<path id="XMLID_576_" class="st13" d="M6.6,92.4c2.3,1.3,4,3.6,3,6.5c2.1-4.7,6.5-3,6.5-3l0,0c0,0-4.4-1.5-3-6.5
					C12.1,92.2,9.1,93.1,6.6,92.4L6.6,92.4z"/>
			</g>
			<g id="XMLID_571_" class="st15">
				<path id="XMLID_574_" class="st13" d="M33.7,55.2c1.7,1,3,2.8,2.3,4.9c1.6-3.6,4.9-2.3,4.9-2.3l0,0c0,0-3.3-1.1-2.3-4.9
					C37.8,55.1,35.6,55.7,33.7,55.2L33.7,55.2z"/>
			</g>
			<g id="XMLID_567_" class="st14">
				<path id="XMLID_568_" class="st13" d="M41.1,70.5c1.3,0.7,2.3,2.1,1.7,3.7c1.2-2.7,3.7-1.7,3.7-1.7l0,0c0,0-2.5-0.9-1.7-3.7
					C44.2,70.4,42.5,70.9,41.1,70.5L41.1,70.5z"/>
			</g>
			<g id="XMLID_562_" class="st9">
				<path id="XMLID_566_" class="st13" d="M148.7,70.9c2.7,1.5,4.8,4.3,3.6,7.7C154.8,73,160,75,160,75l0,0c0,0-5.3-1.8-3.6-7.7
					C155.1,70.7,151.7,71.8,148.7,70.9L148.7,70.9z"/>
			</g>
			<g id="XMLID_556_" class="st14">
				<path id="XMLID_559_" class="st13" d="M108.3,69c1.4,0.8,2.4,2.2,1.8,3.8c1.3-2.8,3.8-1.8,3.8-1.8l0,0c0,0-2.6-0.9-1.8-3.8
					C111.5,68.9,109.8,69.4,108.3,69L108.3,69z"/>
			</g>
		</g>
	</g>
	<g id="XMLID_385_">
		<g id="XMLID_414_">
			<g id="XMLID_541_">
				<g id="XMLID_542_">
					<g id="XMLID_545_">
						
							<radialGradient id="XMLID_4_" cx="-725.7921" cy="-2764.2761" r="72.224" gradientTransform="matrix(-1.2648 0 0 1.2833 -831.5622 3633.2883)" gradientUnits="userSpaceOnUse">
							<stop  offset="0.5849" style="stop-color:#FFFFFF;stop-opacity:0"/>
							<stop  offset="0.6211" style="stop-color:#E4EEF6;stop-opacity:9.439838e-002"/>
							<stop  offset="0.711" style="stop-color:#AFD0E6;stop-opacity:0.3284"/>
							<stop  offset="0.7939" style="stop-color:#8CBDDB;stop-opacity:0.5443"/>
							<stop  offset="0.8671" style="stop-color:#78B3D4;stop-opacity:0.7351"/>
							<stop  offset="0.9279" style="stop-color:#6DAECF;stop-opacity:0.8935"/>
							<stop  offset="0.9688" style="stop-color:#69ACCE"/>
						</radialGradient>
						<path id="XMLID_551_" class="st16" d="M28,135.6c-26.6-26.5-26.6-69.5,0-96l48.1,47.9L28,135.6z"/>
						
							<radialGradient id="XMLID_5_" cx="-2341.9287" cy="-5731.1885" r="108.3353" gradientTransform="matrix(0 0.6293 0.6324 0 3708.1477 1560.2832)" gradientUnits="userSpaceOnUse">
							<stop  offset="0.4168" style="stop-color:#FFFFFF;stop-opacity:0"/>
							<stop  offset="0.4935" style="stop-color:#E0ECF5;stop-opacity:0.1391"/>
							<stop  offset="0.7257" style="stop-color:#96C2DE;stop-opacity:0.5596"/>
							<stop  offset="0.8895" style="stop-color:#74B1D2;stop-opacity:0.8563"/>
							<stop  offset="0.9688" style="stop-color:#69ACCE"/>
						</radialGradient>
						<path id="XMLID_549_" class="st17" d="M40,123.6c-20-19.9-20-52.1,0-72l36.1,35.9L40,123.6z"/>
						
							<radialGradient id="XMLID_6_" cx="-2341.2981" cy="-5735.2603" r="65.5003" gradientTransform="matrix(0 0.6293 0.6324 0 3708.1477 1560.2832)" gradientUnits="userSpaceOnUse">
							<stop  offset="0.5134" style="stop-color:#FFFFFF;stop-opacity:0"/>
							<stop  offset="0.5564" style="stop-color:#E4EEF6;stop-opacity:9.439838e-002"/>
							<stop  offset="0.6629" style="stop-color:#AFD0E6;stop-opacity:0.3284"/>
							<stop  offset="0.7613" style="stop-color:#8CBDDB;stop-opacity:0.5443"/>
							<stop  offset="0.8481" style="stop-color:#78B3D4;stop-opacity:0.7351"/>
							<stop  offset="0.9203" style="stop-color:#6DAECF;stop-opacity:0.8935"/>
							<stop  offset="0.9688" style="stop-color:#69ACCE"/>
						</radialGradient>
						<path id="XMLID_546_" class="st18" d="M52.1,111.6c-13.3-13.3-13.3-34.7,0-48l24,23.9L52.1,111.6z"/>
					</g>
					<path id="XMLID_543_" class="st19" d="M34.6,87.8"/>
				</g>
			</g>
			<g id="XMLID_453_">
				<g id="XMLID_502_">
					
						<radialGradient id="XMLID_7_" cx="-725.7921" cy="1399.791" r="72.224" gradientTransform="matrix(0 1.2587 -1.2648 0 1844.864 999.5626)" gradientUnits="userSpaceOnUse">
						<stop  offset="0.5849" style="stop-color:#FFFFFF;stop-opacity:0"/>
						<stop  offset="0.6211" style="stop-color:#E4EEF6;stop-opacity:9.439838e-002"/>
						<stop  offset="0.711" style="stop-color:#AFD0E6;stop-opacity:0.3284"/>
						<stop  offset="0.7939" style="stop-color:#8CBDDB;stop-opacity:0.5443"/>
						<stop  offset="0.8671" style="stop-color:#78B3D4;stop-opacity:0.7351"/>
						<stop  offset="0.9279" style="stop-color:#6DAECF;stop-opacity:0.8935"/>
						<stop  offset="0.9688" style="stop-color:#69ACCE"/>
					</radialGradient>
					<path id="XMLID_540_" class="st20" d="M132.8,135.6c26.6-26.5,26.6-69.5,0-96L84.7,87.5L132.8,135.6z"/>
					
						<radialGradient id="XMLID_8_" cx="-2341.9287" cy="2596.9658" r="108.3353" gradientTransform="matrix(-2.839200e-011 0.6293 -0.6324 -2.825500e-011 1719.3035 1560.2832)" gradientUnits="userSpaceOnUse">
						<stop  offset="0.4168" style="stop-color:#FFFFFF;stop-opacity:0"/>
						<stop  offset="0.4935" style="stop-color:#E0ECF5;stop-opacity:0.1391"/>
						<stop  offset="0.7257" style="stop-color:#96C2DE;stop-opacity:0.5596"/>
						<stop  offset="0.8895" style="stop-color:#74B1D2;stop-opacity:0.8563"/>
						<stop  offset="0.9688" style="stop-color:#69ACCE"/>
					</radialGradient>
					<path id="XMLID_509_" class="st21" d="M120.8,123.6c20-19.9,20-52.1,0-72L84.7,87.5L120.8,123.6z"/>
					
						<radialGradient id="XMLID_9_" cx="-2341.2981" cy="2592.8936" r="65.5003" gradientTransform="matrix(-2.839200e-011 0.6293 -0.6324 -2.825500e-011 1719.3035 1560.2832)" gradientUnits="userSpaceOnUse">
						<stop  offset="0.5134" style="stop-color:#FFFFFF;stop-opacity:0"/>
						<stop  offset="0.5564" style="stop-color:#E4EEF6;stop-opacity:9.439838e-002"/>
						<stop  offset="0.6629" style="stop-color:#AFD0E6;stop-opacity:0.3284"/>
						<stop  offset="0.7613" style="stop-color:#8CBDDB;stop-opacity:0.5443"/>
						<stop  offset="0.8481" style="stop-color:#78B3D4;stop-opacity:0.7351"/>
						<stop  offset="0.9203" style="stop-color:#6DAECF;stop-opacity:0.8935"/>
						<stop  offset="0.9688" style="stop-color:#69ACCE"/>
					</radialGradient>
					<path id="XMLID_503_" class="st22" d="M108.8,111.6c13.3-13.3,13.3-34.7,0-48l-24,23.9L108.8,111.6z"/>
				</g>
				<path id="XMLID_488_" class="st19" d="M126.3,87.8"/>
			</g>
		</g>
		<g id="XMLID_394_">
			<path id="XMLID_411_" class="st23" d="M132.8,135.6c26.6-26.5,26.6-69.5,0-96"/>
			<path id="XMLID_410_" class="st23" d="M28,135.6c-26.6-26.5-26.6-69.5,0-96"/>
			<path id="XMLID_404_" class="st23" d="M40,123.6c-20-19.9-20-52.1,0-72"/>
			<path id="XMLID_401_" class="st23" d="M52.1,111.6c-13.3-13.3-13.3-34.7,0-48"/>
			<path id="XMLID_399_" class="st23" d="M108.8,111.6c13.3-13.3,13.3-34.7,0-48"/>
			<path id="XMLID_395_" class="st23" d="M120.8,123.6c20-19.9,20-52.1,0-72"/>
		</g>
	</g>
	<g id="XMLID_282_">
		<ellipse id="XMLID_380_" class="st24" cx="80.2" cy="87.1" rx="26.4" ry="26.3"/>
		<path id="XMLID_360_" class="st25" d="M58.9,84.7c0-10.9,8.9-19.7,19.8-19.7"/>
		<path id="XMLID_290_" class="st26" d="M89.8,95l-7.4-7.4l7.4-7.3L78.2,68.8v14.8l-5-4.9L70.9,81l6.7,6.7l-6.7,6.7l2.4,2.3l5.1-5
			v14.9L89.8,95z M81.6,98.5v-6.8l3.4,3.4L81.6,98.5z M81.6,76.8l3.4,3.4l-3.4,3.4V76.8z"/>
		<circle id="XMLID_285_" class="st25" cx="84" cy="65.4" r="0.5"/>
		<path id="XMLID_284_" class="st27" d="M66.9,110c4.8,2.3,20.7,1,29.2-10.9c4.7-6.6,9.6-23.2,0.4-32.7c0,0,8.7,7.1,10.1,18.2
			c0.6,4.6-0.6,10.5-3.7,15.8C97.2,110.7,84.3,118.1,66.9,110z"/>
	</g>
	<ellipse id="XMLID_281_" class="st28" cx="90.5" cy="50.4" rx="3.8" ry="3.7"/>
	<ellipse id="XMLID_279_" class="st6" cx="52.7" cy="124.3" rx="3.7" ry="3.7"/>
	<g id="XMLID_271_">
		<path id="XMLID_272_" class="st28" d="M55.7,152c-1.4-2.6-4.1-4.5-7.3-3.4c5.3-2.4,3.4-7.2,3.4-7.2l0,0c0,0,1.7,4.9,7.3,3.4
			C55.9,145.9,54.9,149.2,55.7,152L55.7,152z"/>
	</g>
	<g id="XMLID_222_">
		<path id="XMLID_269_" class="st28" d="M101.3,128c-1-1.7-2.8-3-4.9-2.3c3.6-1.6,2.3-4.9,2.3-4.9l0,0c0,0,1.1,3.3,4.9,2.3
			C101.5,123.9,100.8,126.1,101.3,128L101.3,128z"/>
	</g>
</g>
</svg>
