<?xml version="1.0" encoding="utf-8"?>
<!-- Generator: Adobe Illustrator 19.1.0, SVG Export Plug-In . SVG Version: 6.00 Build 0)  -->
<svg version="1.1" id="Слой_1" xmlns="http://www.w3.org/2000/svg" xmlns:xlink="http://www.w3.org/1999/xlink" x="0px" y="0px"
	 viewBox="0 0 160 160" style="enable-background:new 0 0 160 160;" xml:space="preserve">
<style type="text/css">
	.st0{fill:none;stroke:#F1F1F1;stroke-miterlimit:10;}
	.st1{opacity:0.6;fill:url(#XMLID_2_);}
	.st2{fill:#5466AB;}
	.st3{opacity:0.4;fill:#B9ADD5;}
	.st4{opacity:0.2;fill:#B9ADD5;}
	.st5{opacity:0.1;fill:none;stroke:#B9ADD5;stroke-width:5;stroke-miterlimit:10;}
	.st6{opacity:0.4;fill:url(#XMLID_3_);}
	.st7{fill:url(#XMLID_4_);}
	.st8{opacity:0.6;fill:url(#XMLID_5_);stroke:url(#XMLID_6_);stroke-miterlimit:10;}
	.st9{fill:#CD716D;stroke:#0D0F0F;stroke-miterlimit:10;}
	.st10{fill:none;stroke:#5466AB;stroke-width:5;stroke-miterlimit:10;}
	.st11{fill:none;stroke:#F1F1F1;stroke-width:5;stroke-linecap:round;stroke-linejoin:round;stroke-miterlimit:10;}
	.st12{fill:none;stroke:#F1F1F1;stroke-linecap:round;stroke-linejoin:round;stroke-miterlimit:10;}
	.st13{fill:#D6BA6F;stroke:#0D0F0F;stroke-miterlimit:10;}
	.st14{fill:#94B578;stroke:#0D0F0F;stroke-linecap:round;stroke-linejoin:round;stroke-miterlimit:10;}
	.st15{fill:#A6CEE8;stroke:#0D0F0F;stroke-width:2;stroke-linecap:round;stroke-linejoin:round;stroke-miterlimit:10;}
	.st16{fill:#56462D;stroke:#0D0F0F;stroke-linecap:round;stroke-linejoin:round;stroke-miterlimit:10;}
	.st17{fill:#B28763;}
	.st18{fill:#907246;stroke:#0D0F0F;stroke-linecap:round;stroke-linejoin:round;stroke-miterlimit:10;}
	.st19{fill:#D9AC49;stroke:#0D0F0F;stroke-linecap:round;stroke-linejoin:round;stroke-miterlimit:10;}
	.st20{fill:#B0685B;stroke:#0D0F0F;stroke-linecap:round;stroke-linejoin:round;stroke-miterlimit:10;}
	.st21{fill:#E8E4DE;stroke:#0D0F0F;stroke-width:0.5;stroke-linecap:round;stroke-linejoin:round;stroke-miterlimit:10;}
	.st22{fill:#DDE9ED;stroke:#0D0F0F;stroke-linecap:round;stroke-linejoin:round;stroke-miterlimit:10;}
	.st23{fill:#C7A98C;stroke:#0D0F0F;stroke-linecap:round;stroke-linejoin:round;stroke-miterlimit:10;}
	.st24{fill:#49372B;stroke:#0D0F0F;stroke-linecap:round;stroke-linejoin:round;stroke-miterlimit:10;}
	.st25{fill:#2B2519;stroke:#0D0F0F;stroke-linecap:round;stroke-linejoin:round;stroke-miterlimit:10;}
	.st26{fill:#B28763;stroke:#0D0F0F;stroke-miterlimit:10;}
	.st27{fill:#CD716D;stroke:#0D0F0F;stroke-linecap:round;stroke-linejoin:round;stroke-miterlimit:10;}
	.st28{fill:none;stroke:#20201E;stroke-linecap:round;stroke-linejoin:round;stroke-miterlimit:10;}
	.st29{opacity:0.8;fill:none;stroke:#FFFFFF;stroke-width:0.5;stroke-linecap:round;stroke-linejoin:round;stroke-miterlimit:10;}
	.st30{fill:#6EB0B0;stroke:#0D0F0F;stroke-miterlimit:10;}
	.st31{fill:none;stroke:#0D0F0F;stroke-linecap:round;stroke-linejoin:round;stroke-miterlimit:10;}
	.st32{fill:#8678B4;stroke:#0D0F0F;stroke-width:0.5;stroke-linecap:round;stroke-linejoin:round;stroke-miterlimit:10;}
	.st33{opacity:0.8;}
	.st34{fill:none;stroke:#8678B4;stroke-width:3;stroke-linecap:round;stroke-linejoin:round;stroke-miterlimit:10;}
	.st35{fill:#8678B4;stroke:#0D0F0F;stroke-width:0.5;stroke-miterlimit:10;}
	.st36{fill:#8678B4;}
	.st37{fill:#8678B4;stroke:#0D0F0F;stroke-miterlimit:10;}
	.st38{opacity:0.5;fill:none;stroke:#FFFFFF;stroke-width:4;stroke-linecap:round;stroke-linejoin:round;stroke-miterlimit:10;}
	.st39{opacity:0.2;fill:#0D0F0F;}
	.st40{fill:#6C5BA2;stroke:#0D0F0F;stroke-miterlimit:10;}
</style>
<g id="XMLID_147_">
	<path id="XMLID_948_" class="st0" d="M118.9,35.6"/>
	
		<radialGradient id="XMLID_2_" cx="-432.83" cy="-800.792" r="61.8713" gradientTransform="matrix(1.1193 0 0 1.1342 563.0231 991.2825)" gradientUnits="userSpaceOnUse">
		<stop  offset="0.4309" style="stop-color:#8D79B4"/>
		<stop  offset="0.5114" style="stop-color:#8D79B4;stop-opacity:0.8587"/>
		<stop  offset="1" style="stop-color:#8D79B4;stop-opacity:0"/>
	</radialGradient>
	<ellipse id="XMLID_940_" class="st1" cx="78.6" cy="83" rx="69.3" ry="70.2"/>
	<path id="XMLID_939_" class="st2" d="M131.2,114.5"/>
	<path id="XMLID_927_" class="st3" d="M79.1,131.5c-26.3,0-47.7-21.7-47.7-48.3s21.4-48.3,47.7-48.3s47.7,21.7,47.7,48.3
		S105.3,131.5,79.1,131.5z M79.1,44c-21.3,0-38.7,17.6-38.7,39.2s17.4,39.2,38.7,39.2s38.7-17.6,38.7-39.2S100.4,44,79.1,44z"/>
	<path id="XMLID_906_" class="st4" d="M79.1,145.8c-34.1,0-61.8-28.1-61.8-62.6S45,20.5,79.1,20.5s61.8,28.1,61.8,62.6
		S113.1,145.8,79.1,145.8z M79.1,26.6c-30.8,0-55.8,25.4-55.8,56.6s25.1,56.6,55.8,56.6s55.8-25.4,55.8-56.6S109.9,26.6,79.1,26.6z"
		/>
	<ellipse id="XMLID_905_" class="st5" cx="79.1" cy="83.2" rx="70.8" ry="71.7"/>
	
		<radialGradient id="XMLID_3_" cx="-475.743" cy="-786.0473" r="28.1709" gradientTransform="matrix(1.1193 0 0 1.1342 563.0231 991.2825)" gradientUnits="userSpaceOnUse">
		<stop  offset="0.6739" style="stop-color:#9FBA57"/>
		<stop  offset="0.9737" style="stop-color:#FFFFFF;stop-opacity:0"/>
	</radialGradient>
	<ellipse id="XMLID_904_" class="st6" cx="30.5" cy="99.8" rx="31.5" ry="32"/>
	
		<radialGradient id="XMLID_4_" cx="-402.9041" cy="-839.9839" r="34.91" gradientTransform="matrix(1.1193 0 0 1.1342 563.0231 991.2825)" gradientUnits="userSpaceOnUse">
		<stop  offset="0.4" style="stop-color:#D6BA6F"/>
		<stop  offset="0.4365" style="stop-color:#C6BB67;stop-opacity:0.9392"/>
		<stop  offset="0.486" style="stop-color:#B7BB5F;stop-opacity:0.8567"/>
		<stop  offset="0.5445" style="stop-color:#ACBB5B;stop-opacity:0.7592"/>
		<stop  offset="0.6168" style="stop-color:#A4BA58;stop-opacity:0.6387"/>
		<stop  offset="0.7183" style="stop-color:#A0BA58;stop-opacity:0.4696"/>
		<stop  offset="1" style="stop-color:#9FBA57;stop-opacity:0"/>
	</radialGradient>
	<ellipse id="XMLID_903_" class="st7" cx="112.1" cy="38.6" rx="39.1" ry="39.6"/>
	
		<radialGradient id="XMLID_5_" cx="-393.1458" cy="-766.0024" r="32.1803" gradientTransform="matrix(1.1193 0 0 1.1342 563.0231 991.2825)" gradientUnits="userSpaceOnUse">
		<stop  offset="0.4294" style="stop-color:#CD716D"/>
		<stop  offset="0.4468" style="stop-color:#D27E78;stop-opacity:0.9694"/>
		<stop  offset="0.4757" style="stop-color:#D9958D;stop-opacity:0.9189"/>
		<stop  offset="0.5081" style="stop-color:#E1ADA5;stop-opacity:0.862"/>
		<stop  offset="0.544" style="stop-color:#E9C4BE;stop-opacity:0.7992"/>
		<stop  offset="0.5845" style="stop-color:#F1D8D3;stop-opacity:0.7282"/>
		<stop  offset="0.6318" style="stop-color:#F7E9E5;stop-opacity:0.6453"/>
		<stop  offset="0.6903" style="stop-color:#FBF4F2;stop-opacity:0.5428"/>
		<stop  offset="0.7723" style="stop-color:#FEFCFC;stop-opacity:0.3991"/>
		<stop  offset="1" style="stop-color:#FFFFFF;stop-opacity:0"/>
	</radialGradient>
	
		<radialGradient id="XMLID_6_" cx="-393.1458" cy="-766.0024" r="32.6803" gradientTransform="matrix(1.1193 0 0 1.1342 563.0231 991.2825)" gradientUnits="userSpaceOnUse">
		<stop  offset="0.2364" style="stop-color:#CD716D"/>
		<stop  offset="0.2422" style="stop-color:#CB746C;stop-opacity:0.9923"/>
		<stop  offset="0.2818" style="stop-color:#BF8368;stop-opacity:0.9405"/>
		<stop  offset="0.3262" style="stop-color:#B69264;stop-opacity:0.8823"/>
		<stop  offset="0.3753" style="stop-color:#AE9F5F;stop-opacity:0.818"/>
		<stop  offset="0.4308" style="stop-color:#A8A95C;stop-opacity:0.7454"/>
		<stop  offset="0.4956" style="stop-color:#A3B159;stop-opacity:0.6606"/>
		<stop  offset="0.5757" style="stop-color:#A1B658;stop-opacity:0.5557"/>
		<stop  offset="0.688" style="stop-color:#9FB957;stop-opacity:0.4085"/>
		<stop  offset="1" style="stop-color:#9FBA57;stop-opacity:0"/>
	</radialGradient>
	<ellipse id="XMLID_902_" class="st8" cx="123" cy="122.5" rx="36" ry="36.5"/>
	<ellipse id="XMLID_901_" class="st9" cx="123" cy="123.1" rx="13.7" ry="13.9"/>
	<path id="XMLID_896_" class="st10" d="M19.6,98.6"/>
	<path id="XMLID_895_" class="st11" d="M48.5,104.9"/>
	<path id="XMLID_894_" class="st0" d="M113.1,44.2"/>
	<path id="XMLID_893_" class="st12" d="M110.8,123.6"/>
	<path id="XMLID_892_" class="st12" d="M110,119.7"/>
	<path id="XMLID_891_" class="st12" d="M113,123.6"/>
	<path id="XMLID_890_" class="st12" d="M112.8,119.7"/>
	<path id="XMLID_889_" class="st12" d="M118.2,119.7"/>
	<path id="XMLID_888_" class="st12" d="M115.2,123.6"/>
	<path id="XMLID_884_" class="st12" d="M115.4,119.7"/>
	<ellipse id="XMLID_882_" class="st13" cx="112" cy="38.7" rx="14.7" ry="14.9"/>
	<ellipse id="XMLID_881_" class="st14" cx="29.7" cy="99.7" rx="18.6" ry="18.9"/>
	<path id="XMLID_879_" class="st12" d="M117.4,123.6"/>
	<path id="XMLID_878_" class="st15" d="M68.5,85.1"/>
	<path id="XMLID_877_" class="st16" d="M32,98.9c0,0,1.1,2.9,1.1,2.9s1.7,1.7,3.5,1.8c1.8,0.1,2.1-0.3,2.1-0.3l1.2-1.9L33.3,97
		L32,98.9z"/>
	<path id="XMLID_876_" class="st17" d="M110.7,33"/>
	<path id="XMLID_875_" class="st17" d="M116.9,29"/>
	<ellipse id="XMLID_874_" class="st18" cx="29.8" cy="102.6" rx="10.6" ry="1.6"/>
	<path id="XMLID_873_" class="st19" d="M19.2,102.6c0,0,1.5,1.6,10.6,1.6s10.6-1.6,10.6-1.6s0.9,3.7-1.9,4.3c0,0-3,0.9-8.6,0.9
		s-8.5-0.9-8.5-0.9C18.3,106.3,19.2,102.6,19.2,102.6"/>
	<path id="XMLID_871_" class="st16" d="M29.1,100.6v2.9c0,0,0.3,0.6,1.4,0.6s2.7-1.1,2.7-1.1v-2.4H29.1z"/>
	<path id="XMLID_869_" class="st14" d="M19.6,99c0,0-3.4,2.7-1.5,2.6c0,0,0.8,0,1.3-0.3c0.6-0.3,0.6,0.7,0.6,0.7s0.1,2.8,1.8,1.6
		c1.7-1.2,2.9-2.6,3.2-1.7s0.5,3.5,1.4,3.7c0.9,0.2,1.1-2.6,1.1-2.6s0-0.9,1-0.2s1.6,0.9,1.9-0.1c0.3-1.1,2-0.5,2.6,0.1
		c0.6,0.5,1.8-0.3,0.6-2.6"/>
	<path id="XMLID_865_" class="st20" d="M32.5,98.1L32,99.9c-0.1,0.6,1.8,1.6,4.3,2.2s4.6,0.7,4.8,0.2l0.4-1.7L32.5,98.1z"/>
	<path id="XMLID_857_" class="st20" d="M41.4,100.1c-0.1,0.5-1.9,0.5-4,0.1c-2.1-0.4-3.7-1.2-3.6-1.6c0.1-0.5,1.9-0.5,4-0.1
		S41.5,99.6,41.4,100.1z"/>
	<path id="XMLID_853_" class="st19" d="M40.3,98.7c0,0-1.5,1.3-10.6,1.3s-10.6-1.3-10.6-1.3s-0.5-6.4,7-7.6c0,0,2.5-0.4,7,0
		C40.9,91.9,40.3,98.7,40.3,98.7c0,0-1.5,1.3-10.6,1.3"/>
	<ellipse id="XMLID_852_" class="st21" cx="26.6" cy="92.5" rx="0.5" ry="0.5"/>
	<ellipse id="XMLID_851_" class="st21" cx="32.2" cy="91.4" rx="0.4" ry="0.4"/>
	
		<ellipse id="XMLID_850_" transform="matrix(0.9998 -2.131688e-002 2.131688e-002 0.9998 -2.0409 0.539)" class="st21" cx="24.3" cy="96" rx="0.9" ry="0.9"/>
	<ellipse id="XMLID_849_" class="st21" cx="35.3" cy="96.6" rx="0.8" ry="0.8"/>
	<ellipse id="XMLID_848_" class="st21" cx="28.1" cy="94.5" rx="0.6" ry="0.6"/>
	<ellipse id="XMLID_847_" class="st21" cx="32.8" cy="93.9" rx="0.6" ry="0.6"/>
	<polygon id="XMLID_846_" class="st22" points="126.8,132.2 118.8,132.2 116.8,117.1 128.6,117.1 	"/>
	<path id="XMLID_845_" class="st23" d="M127.3,127.7c-2.1,0-4.1-2-4.1-4.4s1.7-4.4,3.9-4.4c0.4,0,0.8,0.1,1.2,0.2L127.3,127.7z"/>
	<polygon id="XMLID_844_" class="st24" points="128,113.5 117.3,114.5 116.8,117.1 128.6,117.1 	"/>
	<line id="XMLID_843_" class="st25" x1="129.8" y1="117.1" x2="115.5" y2="117.1"/>
	<path id="XMLID_842_" class="st26" d="M117.3,36.5c-0.7-2-2.6-3.4-4.8-3.4c-2.3,0-4.3,1.6-4.9,3.7c-0.1,0-0.2,0-0.3,0
		c-2,0-3.6,1.6-3.6,3.7s1.6,3.7,3.6,3.7c1.1,0,2.1-0.5,2.8-1.3c0.7,0.4,1.5,0.6,2.4,0.6c0.7,0,1.3-0.1,1.9-0.4
		c0.6,0.5,1.4,0.7,2.2,0.7c2,0,3.6-1.6,3.6-3.7C120.2,38.3,119,36.8,117.3,36.5z"/>
	<path id="XMLID_833_" class="st27" d="M108.1,34.3c0,1.4,1.1,2.6,2.5,2.6c1.4,0,2.5-1.2,2.5-2.6c0-0.8-0.5-1.6-1-1.7
		c-0.6-0.1-0.9,0.1-1.5,0.1c-0.6,0-0.9-0.4-1.6-0.1S108.1,33.5,108.1,34.3z"/>
	<path id="XMLID_832_" class="st28" d="M110.5,33.1c0,0,0.2-4-3.9-5.9"/>
	<path id="XMLID_831_" class="st29" d="M110.7,36c0,0-1.1,0.1-1.6-1.4"/>
	<polygon id="XMLID_830_" class="st30" points="117.7,48.5 120.4,42.4 103.7,42.4 106.4,48.5 	"/>
	<line id="XMLID_825_" class="st26" x1="112" y1="42.7" x2="112" y2="48.2"/>
	<line id="XMLID_824_" class="st26" x1="108.4" y1="42.7" x2="109.1" y2="48.2"/>
	<line id="XMLID_823_" class="st26" x1="115.7" y1="42.7" x2="115.1" y2="48.2"/>
	<path id="XMLID_822_" class="st31" d="M117.3,36.5c0,0-2.5-0.7-3.6,1.3"/>
	<path id="XMLID_821_" class="st31" d="M107.6,36.8c0,0,3.4,0.4,3.4,2.9"/>
	<ellipse id="XMLID_820_" class="st32" cx="30.5" cy="56.5" rx="4" ry="4.1"/>
	<g id="XMLID_811_" class="st33">
		<line id="XMLID_818_" class="st34" x1="84.7" y1="140" x2="93.3" y2="140"/>
		<line id="XMLID_817_" class="st34" x1="89" y1="144.3" x2="89" y2="135.7"/>
	</g>
	<g id="XMLID_802_" class="st33">
		<line id="XMLID_804_" class="st34" x1="67.6" y1="32.1" x2="74.2" y2="36.5"/>
		<line id="XMLID_803_" class="st34" x1="68.7" y1="37.6" x2="73" y2="30.9"/>
	</g>
	<ellipse id="XMLID_801_" class="st35" cx="130.6" cy="76.6" rx="3.7" ry="3.7"/>
	<ellipse id="XMLID_800_" class="st36" cx="55.1" cy="134.7" rx="2.6" ry="2.7"/>
	<g id="XMLID_260_">
		<ellipse id="XMLID_799_" class="st37" cx="79" cy="81.6" rx="26" ry="26"/>
		<path id="XMLID_798_" class="st38" d="M56.9,81.8c0-12.2,9.9-22,22.1-22"/>
		<path id="XMLID_794_" class="st39" d="M66.4,104.3c4.7,2.3,20.4,1,28.8-10.8c4.7-6.5,8.9-23-0.2-32.4c0,0,8.5,6.5,9.9,17.4
			c0.6,4.5-0.2,10.5-3.2,15.8C95.9,104.6,83.5,112.4,66.4,104.3z"/>
		<g id="XMLID_790_">
			<path id="XMLID_791_" class="st40" d="M75.5,86.8c0-5,6.1-7.9,6.1-10.9c0-2.2-1.9-2.9-4.4-2.9c-2.4,0-4.8,0.9-6.5,1.9v-5.2
				c2-1.1,4.6-1.9,7.5-1.9c4.9,0,9.2,1.9,9.2,6.9c0,5.5-6.8,8.5-6.8,12.2H75.5z M78,96.4c-1.7,0-3.3-1-3.3-3.2
				c0-2.2,1.5-3.2,3.3-3.2c1.7,0,3.2,1,3.2,3.2C81.3,95.3,79.8,96.4,78,96.4z"/>
		</g>
	</g>
</g>
</svg>
