<?xml version="1.0" encoding="utf-8"?>
<!-- Generator: Adobe Illustrator 19.1.0, SVG Export Plug-In . SVG Version: 6.00 Build 0)  -->
<svg version="1.1" id="Слой_1" xmlns="http://www.w3.org/2000/svg" xmlns:xlink="http://www.w3.org/1999/xlink" x="0px" y="0px"
	 viewBox="0 0 160 160" style="enable-background:new 0 0 160 160;" xml:space="preserve">
<style type="text/css">
	.st0{fill:#F1F1F1;}
	.st1{opacity:0.1;fill:none;stroke:#B9ADD5;stroke-width:6;stroke-miterlimit:10;}
	.st2{opacity:0.4;fill:none;stroke:#B9ADD5;stroke-width:15;stroke-miterlimit:10;}
	.st3{opacity:0.2;fill:none;stroke:#B9ADD5;stroke-width:10;stroke-miterlimit:10;}
	.st4{opacity:0.5;fill:#B5BCBC;}
	.st5{fill:#B5BCBC;}
	.st6{fill:#ECCE5C;stroke:#0D0F0F;stroke-linecap:round;stroke-linejoin:round;stroke-miterlimit:10;}
	.st7{opacity:0.7;fill:none;stroke:#FFFFFF;stroke-width:2;stroke-linecap:round;stroke-linejoin:round;stroke-miterlimit:10;}
	.st8{opacity:0.1;}
	.st9{fill:#0D0F0F;}
	.st10{opacity:0.2;}
	.st11{fill:#9C9053;}
	.st12{opacity:0.7;fill:#FFFFFF;}
	.st13{clip-path:url(#XMLID_4_);}
	.st14{fill:#E1C259;stroke:#0D0F0F;stroke-width:2;stroke-linecap:round;stroke-linejoin:round;stroke-miterlimit:10;}
	.st15{opacity:0.3;fill:#0D0F0F;}
	.st16{fill:#FFFFFF;}
	.st17{opacity:0.2;fill:#0D0F0F;}
	.st18{opacity:0.8;}
	.st19{fill:none;stroke:#CD716D;stroke-width:3;stroke-linecap:round;stroke-linejoin:round;stroke-miterlimit:10;}
	.st20{fill:#CD716D;stroke:#0D0F0F;stroke-miterlimit:10;}
</style>
<g id="XMLID_297_">
	<g id="XMLID_1069_">
		<circle id="XMLID_1082_" class="st0" cx="80" cy="80" r="80"/>
		<circle id="XMLID_1080_" class="st1" cx="80" cy="80.7" r="69.4"/>
		<circle id="XMLID_1079_" class="st2" cx="80" cy="80.7" r="37.1"/>
		<circle id="XMLID_1078_" class="st3" cx="80" cy="80.7" r="55.3"/>
		<g id="XMLID_1071_">
			<path id="XMLID_1077_" class="st4" d="M62.9,115.1c-0.1-0.1-0.2-0.1-0.4-0.2c-0.1-0.1-0.2-0.1-0.4-0.2L62.9,115.1z"/>
		</g>
	</g>
	<path id="XMLID_1066_" class="st5" d="M118.6,89.1c3.1-5.3,5.1-10.1,6.5-14.5c2.2-6.4,2.6-12.4,1.4-17.9c-1.3-7.4-5-12.7-8.2-16.2
		c0.1-0.1,0.1-0.2,0.2-0.4c0.1-0.2,0.2-0.4,0.4-0.6c1.3-2.2,1.6-4.7,1.2-7.1c-0.6-4.3-3.7-6.3-4-6.5c-0.3-0.3-0.7-0.5-1.1-0.7
		c-5-2.9-11.3-1.2-14.2,3.8c-0.2,0.3-0.3,0.6-0.5,0.9C86.7,26.6,71,30.8,61.4,47.4c0,0-11.9,19.2-35.2,29.5c-1.2,0.5-2,1.7-2,3
		c0,3.2,2.6,10,17.7,21.4c3.7,2.9,8.2,6,13.5,9.2c0,0,0,0,0,0c2.2,1.4,4.6,2.9,7.2,4.4c10.7,6,19.2,10.1,26,12.6
		c1.9,0.8,3.2,1.2,3.9,1.4c11.9,4,17.3,3,19.6,1.6c1.1-0.6,1.7-1.8,1.6-3.1c0-0.1,0-0.1,0-0.1c-0.4-4.1-0.5-8-0.4-11.8
		C114.3,102.9,118.6,89.1,118.6,89.1z M113.8,30C113.8,30,113.8,30,113.8,30C113.8,30,113.8,30,113.8,30c1.9,1.7,2.5,4.4,1.5,6.7
		c-0.1,0.2-0.1,0.3-0.2,0.4c0,0.1-0.1,0.1-0.1,0.2c0,0,0,0.1-0.1,0.1c-1.3-1-2.2-1.6-2.5-1.7c-2.4-1.7-5.1-3.1-7.8-4.2
		c0,0,0-0.1,0.1-0.1c1.6-2.8,5.3-3.8,8.1-2.2C113.2,29.5,113.5,29.7,113.8,30z"/>
	<g id="XMLID_931_">
		<path id="XMLID_1063_" class="st6" d="M94.8,41.9c-4.5-2.6-6-8.3-3.4-12.8c2.6-4.5,8.3-6,12.8-3.4s6,8.3,3.4,12.8
			C105,42.9,99.3,44.4,94.8,41.9z M102.2,29.1c-2.5-1.5-5.8-0.6-7.3,2c-1.5,2.5-0.6,5.8,2,7.3c2.5,1.5,5.8,0.6,7.3-2
			C105.6,33.9,104.7,30.6,102.2,29.1z"/>
		<path id="XMLID_1062_" class="st7" d="M92.9,30.5c0,0,3.3-5.9,8.4-3.7"/>
		<path id="XMLID_1061_" class="st6" d="M56.6,105.9c30.9,17.5,41.4,16.2,44.8,14.3c1-0.6,1.5-1.7,1.4-2.9
			c-2.4-22.7,7.2-40.6,7.2-40.6c21.7-37.5-33-67.9-54.1-31.2c0,0-10.7,17.3-31.6,26.5c-1.1,0.5-1.8,1.5-1.8,2.7
			c0,3.9,4.2,13.7,34.8,31.7"/>
		<g id="XMLID_1060_" class="st8">
			<path class="st9" d="M105.1,37.7c1.4,5,1.3,14.9-9,32.3c-15.5,26.1-9.4,25.3-8.5,27.7c0.9,2.4,0.4,5.6-0.6,4.4
				c0,0-2.2-1.5-5.9-3.9c-4.3-3-9.1-6.1-14.4-9.1c-3.3-1.9-6.6-3.7-9.8-5.3c-13.7-7.2-28.2-12.9-34.5-8.6
				c0.4,4.3,5.5,13.8,34.4,30.9c30.6,17.3,41.1,16,44.5,14.1c1-0.6,1.5-1.7,1.4-2.9c-2.4-22.7,7.2-40.6,7.2-40.6
				C119,61,114.7,46.5,105.1,37.7z"/>
		</g>
		<g id="XMLID_1056_" class="st10">
			<path id="XMLID_1057_" class="st9" d="M87.2,106.3c-0.1-0.1-0.2-0.1-0.3-0.2c-0.1-0.1-0.2-0.1-0.3-0.2L87.2,106.3z"/>
		</g>
		<g id="XMLID_965_">
			<path class="st11" d="M95.2,118.5c-6.7,0-21.5-6-36.9-14.8C40.8,93.6,23.7,80.2,26.5,75.3c0.6-1,1.8-1.4,3.7-1.4
				c6.7,0,21.5,6,36.9,14.8c9.6,5.5,18.2,11.5,24.2,16.7c4.4,3.8,9.3,9,7.7,11.7C98.4,118.1,97.1,118.5,95.2,118.5z"/>
			<path class="st9" d="M30.2,74.4c6.4,0,20.9,5.7,36.6,14.7c19.8,11.4,33.9,23.8,31.7,27.8c-0.5,0.8-1.6,1.2-3.3,1.2
				c-6.4,0-20.9-5.7-36.6-14.7C38.8,91.9,24.7,79.5,26.9,75.5C27.4,74.7,28.5,74.4,30.2,74.4 M30.2,73.4
				C30.2,73.4,30.2,73.4,30.2,73.4c-2.1,0-3.5,0.6-4.1,1.7c-1.4,2.4,1.2,6.6,7.8,12.3c6,5.3,14.6,11.2,24.3,16.8
				c15.4,8.9,30.3,14.9,37.1,14.9c2.1,0,3.5-0.6,4.1-1.7c1.4-2.4-1.2-6.6-7.8-12.3c-6-5.3-14.6-11.2-24.3-16.8
				C51.9,79.3,37,73.4,30.2,73.4L30.2,73.4z"/>
		</g>
		<path id="XMLID_963_" class="st12" d="M73.8,86.4c-8.3-5.3-15.6-8.9-21.4-11.4c0,0,0,0,0,0c5.6-1.2,12.4-15.4,12.4-15.4
			c9.7-18.2,17.4-22.1,23.2-22.9c2.5-0.3,2.5-2.3-2.5-2.1c-7.7,0.2-17.6,1.9-27.8,22.3c0,0-7.7,13.8-13.6,15.1c0,0,0,0,0,0
			c-4.4-1.4-7-1.9-7.2-1.9c-0.5-0.1-1.1,0.3-1.2,0.8c-0.1,0.4,0.1,0.8,0.5,1c0.1,0.1,0.2,0.1,0.3,0.1c0.1,0,14.8,2.5,36.3,16.2
			c0.5,0.3,1.2,0.1,1.5-0.4C74.4,87.2,74.2,86.6,73.8,86.4z"/>
		<g id="XMLID_954_">
			<defs>
				<ellipse id="XMLID_955_" transform="matrix(0.866 0.5 -0.5 0.866 56.4981 -18.461)" cx="62.7" cy="96.2" rx="41.3" ry="8.2"/>
			</defs>
			<clipPath id="XMLID_4_">
				<use xlink:href="#XMLID_955_"  style="overflow:visible;"/>
			</clipPath>
			<g id="XMLID_956_" class="st13">
				<circle id="XMLID_961_" class="st14" cx="65.4" cy="91.5" r="8.9"/>
				<circle id="XMLID_960_" class="st14" cx="65.4" cy="91.5" r="8.9"/>
				<path id="XMLID_958_" class="st15" d="M69.9,83.8c-3.5-2-7.8-1.4-10.6,1.3c1.2,0.2,8,1.6,9.4,6.2c0.6,2.1,1,8.3-5,8.6
					c0,0,0.1,0.1,0.3,0.4c3.5,0.6,7.2-1,9.1-4.3C75.6,91.7,74.1,86.3,69.9,83.8z"/>
				
					<ellipse id="XMLID_957_" transform="matrix(0.918 -0.3966 0.3966 0.918 -31.8587 31.6691)" class="st12" cx="60.7" cy="92.9" rx="1.9" ry="2.8"/>
			</g>
		</g>
		<g id="XMLID_936_">
			<path id="XMLID_949_" class="st16" d="M28.5,76.5c0.5-3-0.4-6.4-3.8-7.5c5.9,1.5,7.6-3.8,7.6-3.8l0,0c0,0-1.8,5.2,3.8,7.5
				C32.7,71.6,29.7,73.6,28.5,76.5L28.5,76.5z"/>
		</g>
		<path id="XMLID_933_" class="st17" d="M107.6,38.4c2.4-4.1,1.2-9.4-2.5-12.2c0,1.1-0.4,2.6-2.5,3.1c1.6,1.2,2.1,2.6,2.2,3.9
			c0.1,1-0.1,2.1-0.7,3.1c-0.2,0.4-0.3,0.6-0.3,0.6l2.9,2.7C107,39.3,107.3,38.9,107.6,38.4z"/>
	</g>
	<circle id="XMLID_930_" class="st6" cx="125.6" cy="106.1" r="4.2"/>
	<g id="XMLID_910_" class="st18">
		<line id="XMLID_928_" class="st19" x1="138.9" y1="102.2" x2="134.1" y2="94.8"/>
		<line id="XMLID_916_" class="st19" x1="140.2" y1="96.2" x2="132.8" y2="101"/>
	</g>
	<g id="XMLID_907_" class="st18">
		<line id="XMLID_909_" class="st19" x1="60.7" y1="138.2" x2="60.7" y2="129.1"/>
		<line id="XMLID_908_" class="st19" x1="65.1" y1="133.7" x2="56.2" y2="133.7"/>
	</g>
	<g id="XMLID_858_" class="st18">
		<line id="XMLID_860_" class="st19" x1="22" y1="46.6" x2="26.5" y2="39.6"/>
		<line id="XMLID_859_" class="st19" x1="27.7" y1="45.4" x2="20.8" y2="40.9"/>
	</g>
	<circle id="XMLID_856_" class="st20" cx="19.3" cy="97.2" r="3.8"/>
	<circle id="XMLID_855_" class="st20" cx="68" cy="17.3" r="3.8"/>
	<circle id="XMLID_854_" class="st20" cx="113.8" cy="121.2" r="2.8"/>
</g>
</svg>
