<?xml version="1.0" encoding="utf-8"?>
<!-- Generator: Adobe Illustrator 19.1.0, SVG Export Plug-In . SVG Version: 6.00 Build 0)  -->
<svg version="1.1" id="Слой_1" xmlns="http://www.w3.org/2000/svg" xmlns:xlink="http://www.w3.org/1999/xlink" x="0px" y="0px"
	 viewBox="0 0 48 48" style="enable-background:new 0 0 48 48;" xml:space="preserve">
<style type="text/css">
	.st0{fill:#FFFFFF;}
</style>
<g id="XMLID_309_">
	<g id="XMLID_32_">
		<path id="XMLID_312_" class="st0" d="M24,0C10.8,0,0,10.8,0,24c0,13.2,10.8,24,24,24c13.2,0,24-10.8,24-24C48,10.8,37.2,0,24,0z
			 M30,24.8h-3.9c0,6.2,0,13.9,0,13.9h-5.8c0,0,0-7.6,0-13.9h-2.8v-4.9h2.8v-3.2c0-2.3,1.1-5.8,5.8-5.8l4.3,0v4.8c0,0-2.6,0-3.1,0
			c-0.5,0-1.2,0.3-1.2,1.3v2.9h4.4L30,24.8z"/>
	</g>
</g>
</svg>
