<?xml version="1.0" encoding="utf-8"?>
<!-- Generator: Adobe Illustrator 19.1.0, SVG Export Plug-In . SVG Version: 6.00 Build 0)  -->
<svg version="1.1" id="Слой_1" xmlns="http://www.w3.org/2000/svg" xmlns:xlink="http://www.w3.org/1999/xlink" x="0px" y="0px"
	 viewBox="0 0 48 48" style="enable-background:new 0 0 48 48;" xml:space="preserve">
<style type="text/css">
	.st0{fill:#FFFFFF;}
</style>
<g id="XMLID_349_">
	<path id="XMLID_379_" class="st0" d="M25.2,20.5L25.2,20.5C25.2,20.5,25.2,20.5,25.2,20.5L25.2,20.5z"/>
	<path id="XMLID_388_" class="st0" d="M23.6,0.5C10.6,0.5,0,11,0,24s10.6,23.5,23.6,23.5S47.2,37,47.2,24S36.6,0.5,23.6,0.5z M17,33
		h-6V18h6V33z M14.4,15L14.4,15c-1.8,0-2.9-0.7-2.9-2.2c0-1.5,1.2-2.5,3-2.5c1.8,0,2.9,0.8,2.9,2.3C17.4,14.2,16.3,15,14.4,15z
		 M36,33L36,33h-6v-7.5c0-2.1-0.4-3.6-2.3-3.6c-1.5,0-1.7,1-2.1,1.9c-0.1,0.3,0.4,0.8,0.4,1.3V33h-6c0,0,0.1-14,0-15h6v2.4
		c0-1.1,1.5-2.6,4.3-2.6c3.5,0,5.7,2.3,5.7,7.1V33z"/>
</g>
</svg>
