<?xml version="1.0" encoding="utf-8"?>
<!-- Generator: Adobe Illustrator 19.1.0, SVG Export Plug-In . SVG Version: 6.00 Build 0)  -->
<svg version="1.1" id="Слой_1" xmlns="http://www.w3.org/2000/svg" xmlns:xlink="http://www.w3.org/1999/xlink" x="0px" y="0px"
	 viewBox="0 0 48 48" style="enable-background:new 0 0 48 48;" xml:space="preserve">
<style type="text/css">
	.st0{fill:#FFFFFF;}
</style>
<g id="XMLID_343_">
	<g id="XMLID_344_">
		<path id="XMLID_345_" class="st0" d="M24,0C10.8,0,0,10.8,0,24c0,13.2,10.8,24,24,24c13.2,0,24-10.8,24-24C48,10.8,37.2,0,24,0z
			 M34.7,18.5c0,0.2,0,0.5,0,0.7c0,7.3-5.6,15.7-15.7,15.7c-3.1,0-6-0.9-8.5-2.5c0.4,0.1,0.9,0.1,1.3,0.1c2.6,0,5-0.9,6.9-2.4
			c-2.4,0-4.5-1.6-5.2-3.8c0.3,0.1,0.7,0.1,1,0.1c0.5,0,1-0.1,1.5-0.2c-2.5-0.5-4.4-2.7-4.4-5.4c0,0,0,0,0-0.1
			c0.7,0.4,1.6,0.7,2.5,0.7c-1.5-1-2.5-2.7-2.5-4.6c0-1,0.3-2,0.7-2.8c2.7,3.3,6.8,5.5,11.4,5.8c-0.1-0.4-0.1-0.8-0.1-1.3
			c0-3.1,2.5-5.5,5.5-5.5c1.6,0,3,0.7,4,1.7c1.3-0.2,2.4-0.7,3.5-1.3c-0.4,1.3-1.3,2.4-2.4,3.1c1.1-0.1,2.2-0.4,3.2-0.9
			C36.7,16.8,35.8,17.7,34.7,18.5z"/>
	</g>
</g>
</svg>
